<?xml version="1.0" encoding="us-ascii" standalone="no"?><svg xmlns="http://www.w3.org/2000/svg" xmlns:xlink="http://www.w3.org/1999/xlink" contentStyleType="text/css" height="1083px" preserveAspectRatio="none" style="width:392px;height:1083px;background:#FFFFFF;" version="1.1" viewBox="0 0 392 1083" width="392px" zoomAndPan="magnify"><defs/><g><!--class Luminosidad--><g id="elem_Luminosidad"><rect codeLine="1" fill="#F1F1F1" height="96.8906" id="Luminosidad" rx="2.5" ry="2.5" style="stroke:#181818;stroke-width:0.5;" width="121" x="7" y="23"/><ellipse cx="22" cy="39" fill="#EB937F" rx="11" ry="11" style="stroke:#181818;stroke-width:1.0;"/><path d="M20.7969,39.875 L22.25,39.875 L22.25,39.9844 C22.25,40.3906 22.2813,40.5469 22.3594,40.7031 C22.5156,40.9531 22.7969,41.1094 23.0938,41.1094 C23.3438,41.1094 23.6094,40.9688 23.7656,40.75 C23.8906,40.5938 23.9219,40.4375 23.9219,39.9844 L23.9219,38.0625 C23.9219,37.9063 23.9219,37.8594 23.9063,37.7031 C23.8438,37.2344 23.5313,36.9219 23.0781,36.9219 C22.8281,36.9219 22.5625,37.0625 22.3906,37.2813 C22.2813,37.4531 22.25,37.6094 22.25,38.0625 L22.25,38.1875 L20.7969,38.1875 L20.7969,35.7813 L24.7813,35.7813 L24.7813,36.6406 C24.7813,37.0469 24.8125,37.2188 24.8906,37.375 C25.0625,37.625 25.3438,37.7813 25.625,37.7813 C25.8906,37.7813 26.1563,37.6406 26.3281,37.4219 C26.4375,37.25 26.4688,37.1094 26.4688,36.6406 L26.4688,34.0938 L18.8438,34.0938 C18.4063,34.0938 18.2813,34.1094 18.125,34.2031 C17.875,34.3594 17.7188,34.6563 17.7188,34.9375 C17.7188,35.2188 17.8594,35.4688 18.0781,35.6406 C18.2344,35.75 18.4219,35.7813 18.8438,35.7813 L19.0938,35.7813 L19.0938,42.2969 L18.8438,42.2969 C18.4375,42.2969 18.2813,42.3125 18.125,42.4219 C17.875,42.5938 17.7188,42.8594 17.7188,43.1563 C17.7188,43.4219 17.8594,43.6719 18.0781,43.8281 C18.2188,43.9531 18.4531,44 18.8438,44 L26.8438,44 L26.8438,41.4219 C26.8438,40.9844 26.8125,40.8438 26.7344,40.6875 C26.5625,40.4375 26.2813,40.2813 26,40.2813 C25.7344,40.2813 25.4688,40.3906 25.2969,40.6406 C25.1875,40.7969 25.1563,40.9375 25.1563,41.4219 L25.1563,42.2969 L20.7969,42.2969 L20.7969,39.875 Z " fill="#000000"/><text fill="#000000" font-family="sans-serif" font-size="14" lengthAdjust="spacing" textLength="89" x="36" y="43.8467">Luminosidad</text><line style="stroke:#181818;stroke-width:0.5;" x1="8" x2="127" y1="55" y2="55"/><text fill="#000000" font-family="sans-serif" font-size="14" lengthAdjust="spacing" textLength="41" x="13" y="71.9951">ALTA,</text><text fill="#000000" font-family="sans-serif" font-size="14" lengthAdjust="spacing" textLength="50" x="13" y="88.292">MEDIA,</text><text fill="#000000" font-family="sans-serif" font-size="14" lengthAdjust="spacing" textLength="34" x="13" y="104.5889">BAJA</text><line style="stroke:#181818;stroke-width:0.5;" x1="8" x2="127" y1="111.8906" y2="111.8906"/></g><!--class Laboratorio--><g id="elem_Laboratorio"><rect codeLine="7" fill="#F1F1F1" height="129.4844" id="Laboratorio" rx="2.5" ry="2.5" style="stroke:#181818;stroke-width:0.5;" width="183" x="163" y="7"/><ellipse cx="208.75" cy="23" fill="#B4A7E5" rx="11" ry="11" style="stroke:#181818;stroke-width:1.0;"/><path d="M209.7031,19.7813 L211.4219,19.7813 C211.8125,19.7813 212,19.75 212.125,19.6719 C212.3906,19.5156 212.5313,19.2344 212.5313,18.9375 C212.5313,18.6719 212.4219,18.4063 212.1875,18.2344 C212.0156,18.125 211.875,18.0938 211.4219,18.0938 L206.2813,18.0938 C205.8438,18.0938 205.7188,18.1094 205.5625,18.2031 C205.3125,18.3594 205.1563,18.6563 205.1563,18.9375 C205.1563,19.2188 205.2969,19.4688 205.5156,19.6406 C205.6719,19.75 205.8594,19.7813 206.2813,19.7813 L208,19.7813 L208,26.2969 L206.2813,26.2969 C205.8438,26.2969 205.7188,26.3125 205.5625,26.4219 C205.3125,26.5781 205.1563,26.8594 205.1563,27.1563 C205.1563,27.4063 205.2969,27.6719 205.5156,27.8281 C205.6719,27.9531 205.875,28 206.2813,28 L211.4219,28 C212.1719,28 212.5313,27.7188 212.5313,27.1563 C212.5313,26.875 212.4219,26.625 212.1875,26.4531 C212.0156,26.3281 211.875,26.2969 211.4219,26.2969 L209.7031,26.2969 L209.7031,19.7813 Z " fill="#000000"/><text fill="#000000" font-family="sans-serif" font-size="14" font-style="italic" lengthAdjust="spacing" textLength="83" x="229.25" y="27.8467">Laboratorio</text><line style="stroke:#181818;stroke-width:0.5;" x1="164" x2="345" y1="39" y2="39"/><line style="stroke:#181818;stroke-width:0.5;" x1="164" x2="345" y1="47" y2="47"/><ellipse cx="174" cy="60.6484" fill="#84BE84" rx="3" ry="3" style="stroke:#038048;stroke-width:1.0;"/><text fill="#000000" font-family="sans-serif" font-size="14" lengthAdjust="spacing" textLength="157" x="183" y="63.9951">realizarExperimento()</text><ellipse cx="174" cy="76.9453" fill="#84BE84" rx="3" ry="3" style="stroke:#038048;stroke-width:1.0;"/><text fill="#000000" font-family="sans-serif" font-size="14" lengthAdjust="spacing" textLength="98" x="183" y="80.292">abrirArchivo()</text><ellipse cx="174" cy="93.2422" fill="#84BE84" rx="3" ry="3" style="stroke:#038048;stroke-width:1.0;"/><text fill="#000000" font-family="sans-serif" font-size="14" lengthAdjust="spacing" textLength="141" x="183" y="96.5889">crearExperimento()</text><ellipse cx="174" cy="109.5391" fill="#84BE84" rx="3" ry="3" style="stroke:#038048;stroke-width:1.0;"/><text fill="#000000" font-family="sans-serif" font-size="14" lengthAdjust="spacing" textLength="64" x="183" y="112.8857">guardar()</text><ellipse cx="174" cy="125.8359" fill="#84BE84" rx="3" ry="3" style="stroke:#038048;stroke-width:1.0;"/><text fill="#000000" font-family="sans-serif" font-size="14" lengthAdjust="spacing" textLength="106" x="183" y="129.1826">guardarComo()</text></g><!--class Experimento--><g id="elem_Experimento"><rect codeLine="15" fill="#F1F1F1" height="276.1563" id="Experimento" rx="2.5" ry="2.5" style="stroke:#181818;stroke-width:0.5;" width="209" x="150" y="355"/><ellipse cx="203.25" cy="371" fill="#ADD1B2" rx="11" ry="11" style="stroke:#181818;stroke-width:1.0;"/><path d="M205.5938,366.6719 C204.6563,366.2344 204.0625,366.0938 203.1875,366.0938 C200.5625,366.0938 198.5625,368.1719 198.5625,370.8906 L198.5625,372.0156 C198.5625,374.5938 200.6719,376.4844 203.5625,376.4844 C204.7813,376.4844 205.9375,376.1875 206.6875,375.6406 C207.2656,375.2344 207.5938,374.7813 207.5938,374.3906 C207.5938,373.9375 207.2031,373.5469 206.7344,373.5469 C206.5156,373.5469 206.3125,373.625 206.125,373.8125 C205.6719,374.2969 205.6719,374.2969 205.4844,374.3906 C205.0625,374.6563 204.375,374.7813 203.6094,374.7813 C201.5625,374.7813 200.2656,373.6875 200.2656,371.9844 L200.2656,370.8906 C200.2656,369.1094 201.5156,367.7969 203.25,367.7969 C203.8281,367.7969 204.4375,367.9531 204.9063,368.2031 C205.3906,368.4844 205.5625,368.7031 205.6563,369.1094 C205.7188,369.5156 205.75,369.6406 205.8906,369.7656 C206.0313,369.9063 206.2656,370.0156 206.4844,370.0156 C206.75,370.0156 207.0156,369.875 207.1875,369.6563 C207.2969,369.5 207.3281,369.3125 207.3281,368.8906 L207.3281,367.4688 C207.3281,367.0313 207.3125,366.9063 207.2188,366.75 C207.0625,366.4844 206.7813,366.3438 206.4844,366.3438 C206.1875,366.3438 205.9844,366.4375 205.7656,366.75 L205.5938,366.6719 Z " fill="#000000"/><text fill="#000000" font-family="sans-serif" font-size="14" lengthAdjust="spacing" textLength="94" x="223.75" y="375.8467">Experimento</text><line style="stroke:#181818;stroke-width:0.5;" x1="151" x2="358" y1="387" y2="387"/><rect fill="none" height="6" style="stroke:#C82930;stroke-width:1.0;" width="6" x="158" y="397.6484"/><text fill="#000000" font-family="sans-serif" font-size="14" lengthAdjust="spacing" textLength="110" x="170" y="403.9951">nombre: String</text><rect fill="none" height="6" style="stroke:#C82930;stroke-width:1.0;" width="6" x="158" y="413.9453"/><text fill="#000000" font-family="sans-serif" font-size="14" lengthAdjust="spacing" textLength="122" x="170" y="420.292">fechaInicio: Date</text><rect fill="none" height="6" style="stroke:#C82930;stroke-width:1.0;" width="6" x="158" y="430.2422"/><text fill="#000000" font-family="sans-serif" font-size="14" lengthAdjust="spacing" textLength="105" x="170" y="436.5889">fechaFin: Date</text><rect fill="none" height="6" style="stroke:#C82930;stroke-width:1.0;" width="6" x="158" y="446.5391"/><text fill="#000000" font-family="sans-serif" font-size="14" lengthAdjust="spacing" textLength="127" x="170" y="452.8857">numBacterias: Int</text><rect fill="none" height="6" style="stroke:#C82930;stroke-width:1.0;" width="6" x="158" y="462.8359"/><text fill="#000000" font-family="sans-serif" font-size="14" lengthAdjust="spacing" textLength="152" x="170" y="469.1826">temperatura: Double</text><rect fill="none" height="6" style="stroke:#C82930;stroke-width:1.0;" width="6" x="158" y="479.1328"/><text fill="#000000" font-family="sans-serif" font-size="14" lengthAdjust="spacing" textLength="183" x="170" y="485.4795">luminosidad: Luminosidad</text><rect fill="none" height="6" style="stroke:#C82930;stroke-width:1.0;" width="6" x="158" y="495.4297"/><text fill="#000000" font-family="sans-serif" font-size="14" lengthAdjust="spacing" textLength="137" x="170" y="501.7764">dosisComida: Dosis</text><rect fill="none" height="6" style="stroke:#C82930;stroke-width:1.0;" width="6" x="158" y="511.7266"/><text fill="#000000" font-family="sans-serif" font-size="14" lengthAdjust="spacing" textLength="176" x="170" y="518.0732">poblaciones: Poblacion[]</text><line style="stroke:#181818;stroke-width:0.5;" x1="151" x2="358" y1="525.375" y2="525.375"/><ellipse cx="161" cy="539.0234" fill="#84BE84" rx="3" ry="3" style="stroke:#038048;stroke-width:1.0;"/><text fill="#000000" font-family="sans-serif" font-size="14" lengthAdjust="spacing" textLength="148" x="170" y="542.3701">gestionarPoblacion()</text><ellipse cx="161" cy="555.3203" fill="#84BE84" rx="3" ry="3" style="stroke:#038048;stroke-width:1.0;"/><text fill="#000000" font-family="sans-serif" font-size="14" lengthAdjust="spacing" textLength="118" x="170" y="558.667">guardarArchivo()</text><ellipse cx="161" cy="571.6172" fill="#84BE84" rx="3" ry="3" style="stroke:#038048;stroke-width:1.0;"/><text fill="#000000" font-family="sans-serif" font-size="14" lengthAdjust="spacing" textLength="117" x="170" y="574.9639">crearPoblacion()</text><ellipse cx="161" cy="587.9141" fill="#84BE84" rx="3" ry="3" style="stroke:#038048;stroke-width:1.0;"/><text fill="#000000" font-family="sans-serif" font-size="14" lengthAdjust="spacing" textLength="161" x="170" y="591.2607">visualizarPoblaciones()</text><ellipse cx="161" cy="604.2109" fill="#84BE84" rx="3" ry="3" style="stroke:#038048;stroke-width:1.0;"/><text fill="#000000" font-family="sans-serif" font-size="14" lengthAdjust="spacing" textLength="125" x="170" y="607.5576">borrarPoblacion()</text><ellipse cx="161" cy="620.5078" fill="#84BE84" rx="3" ry="3" style="stroke:#038048;stroke-width:1.0;"/><text fill="#000000" font-family="sans-serif" font-size="14" lengthAdjust="spacing" textLength="162" x="170" y="623.8545">verDetallesPoblacion()</text></g><!--class Dosis--><g id="elem_Dosis"><rect codeLine="33" fill="#F1F1F1" height="129.4844" id="Dosis" rx="2.5" ry="2.5" style="stroke:#181818;stroke-width:0.5;" width="224" x="142.5" y="947"/><ellipse cx="231.25" cy="963" fill="#ADD1B2" rx="11" ry="11" style="stroke:#181818;stroke-width:1.0;"/><path d="M233.5938,958.6719 C232.6563,958.2344 232.0625,958.0938 231.1875,958.0938 C228.5625,958.0938 226.5625,960.1719 226.5625,962.8906 L226.5625,964.0156 C226.5625,966.5938 228.6719,968.4844 231.5625,968.4844 C232.7813,968.4844 233.9375,968.1875 234.6875,967.6406 C235.2656,967.2344 235.5938,966.7813 235.5938,966.3906 C235.5938,965.9375 235.2031,965.5469 234.7344,965.5469 C234.5156,965.5469 234.3125,965.625 234.125,965.8125 C233.6719,966.2969 233.6719,966.2969 233.4844,966.3906 C233.0625,966.6563 232.375,966.7813 231.6094,966.7813 C229.5625,966.7813 228.2656,965.6875 228.2656,963.9844 L228.2656,962.8906 C228.2656,961.1094 229.5156,959.7969 231.25,959.7969 C231.8281,959.7969 232.4375,959.9531 232.9063,960.2031 C233.3906,960.4844 233.5625,960.7031 233.6563,961.1094 C233.7188,961.5156 233.75,961.6406 233.8906,961.7656 C234.0313,961.9063 234.2656,962.0156 234.4844,962.0156 C234.75,962.0156 235.0156,961.875 235.1875,961.6563 C235.2969,961.5 235.3281,961.3125 235.3281,960.8906 L235.3281,959.4688 C235.3281,959.0313 235.3125,958.9063 235.2188,958.75 C235.0625,958.4844 234.7813,958.3438 234.4844,958.3438 C234.1875,958.3438 233.9844,958.4375 233.7656,958.75 L233.5938,958.6719 Z " fill="#000000"/><text fill="#000000" font-family="sans-serif" font-size="14" lengthAdjust="spacing" textLength="38" x="251.75" y="967.8467">Dosis</text><line style="stroke:#181818;stroke-width:0.5;" x1="143.5" x2="365.5" y1="979" y2="979"/><rect fill="none" height="6" style="stroke:#C82930;stroke-width:1.0;" width="6" x="150.5" y="989.6484"/><text fill="#000000" font-family="sans-serif" font-size="14" lengthAdjust="spacing" textLength="132" x="162.5" y="995.9951">cantidadInicial: Int</text><rect fill="none" height="6" style="stroke:#C82930;stroke-width:1.0;" width="6" x="150.5" y="1005.9453"/><text fill="#000000" font-family="sans-serif" font-size="14" lengthAdjust="spacing" textLength="134" x="162.5" y="1012.292">diaIncremento: Int</text><rect fill="none" height="6" style="stroke:#C82930;stroke-width:1.0;" width="6" x="150.5" y="1022.2422"/><text fill="#000000" font-family="sans-serif" font-size="14" lengthAdjust="spacing" textLength="198" x="162.5" y="1028.5889">cantidadDiaIncremento: Int</text><rect fill="none" height="6" style="stroke:#C82930;stroke-width:1.0;" width="6" x="150.5" y="1038.5391"/><text fill="#000000" font-family="sans-serif" font-size="14" lengthAdjust="spacing" textLength="124" x="162.5" y="1044.8857">cantidadFinal: Int</text><line style="stroke:#181818;stroke-width:0.5;" x1="143.5" x2="365.5" y1="1052.1875" y2="1052.1875"/><ellipse cx="153.5" cy="1065.8359" fill="#84BE84" rx="3" ry="3" style="stroke:#038048;stroke-width:1.0;"/><text fill="#000000" font-family="sans-serif" font-size="14" lengthAdjust="spacing" textLength="143" x="162.5" y="1069.1826">calcularDosisDiaria()</text></g><!--class Poblacion--><g id="elem_Poblacion"><rect codeLine="42" fill="#F1F1F1" height="162.0781" id="Poblacion" rx="2.5" ry="2.5" style="stroke:#181818;stroke-width:0.5;" width="209" x="150" y="708"/><ellipse cx="215.25" cy="724" fill="#ADD1B2" rx="11" ry="11" style="stroke:#181818;stroke-width:1.0;"/><path d="M217.5938,719.6719 C216.6563,719.2344 216.0625,719.0938 215.1875,719.0938 C212.5625,719.0938 210.5625,721.1719 210.5625,723.8906 L210.5625,725.0156 C210.5625,727.5938 212.6719,729.4844 215.5625,729.4844 C216.7813,729.4844 217.9375,729.1875 218.6875,728.6406 C219.2656,728.2344 219.5938,727.7813 219.5938,727.3906 C219.5938,726.9375 219.2031,726.5469 218.7344,726.5469 C218.5156,726.5469 218.3125,726.625 218.125,726.8125 C217.6719,727.2969 217.6719,727.2969 217.4844,727.3906 C217.0625,727.6563 216.375,727.7813 215.6094,727.7813 C213.5625,727.7813 212.2656,726.6875 212.2656,724.9844 L212.2656,723.8906 C212.2656,722.1094 213.5156,720.7969 215.25,720.7969 C215.8281,720.7969 216.4375,720.9531 216.9063,721.2031 C217.3906,721.4844 217.5625,721.7031 217.6563,722.1094 C217.7188,722.5156 217.75,722.6406 217.8906,722.7656 C218.0313,722.9063 218.2656,723.0156 218.4844,723.0156 C218.75,723.0156 219.0156,722.875 219.1875,722.6563 C219.2969,722.5 219.3281,722.3125 219.3281,721.8906 L219.3281,720.4688 C219.3281,720.0313 219.3125,719.9063 219.2188,719.75 C219.0625,719.4844 218.7813,719.3438 218.4844,719.3438 C218.1875,719.3438 217.9844,719.4375 217.7656,719.75 L217.5938,719.6719 Z " fill="#000000"/><text fill="#000000" font-family="sans-serif" font-size="14" lengthAdjust="spacing" textLength="70" x="235.75" y="728.8467">Poblacion</text><line style="stroke:#181818;stroke-width:0.5;" x1="151" x2="358" y1="740" y2="740"/><rect fill="none" height="6" style="stroke:#C82930;stroke-width:1.0;" width="6" x="158" y="750.6484"/><text fill="#000000" font-family="sans-serif" font-size="14" lengthAdjust="spacing" textLength="110" x="170" y="756.9951">nombre: String</text><rect fill="none" height="6" style="stroke:#C82930;stroke-width:1.0;" width="6" x="158" y="766.9453"/><text fill="#000000" font-family="sans-serif" font-size="14" lengthAdjust="spacing" textLength="122" x="170" y="773.292">fechaInicio: Date</text><rect fill="none" height="6" style="stroke:#C82930;stroke-width:1.0;" width="6" x="158" y="783.2422"/><text fill="#000000" font-family="sans-serif" font-size="14" lengthAdjust="spacing" textLength="105" x="170" y="789.5889">fechaFin: Date</text><rect fill="none" height="6" style="stroke:#C82930;stroke-width:1.0;" width="6" x="158" y="799.5391"/><text fill="#000000" font-family="sans-serif" font-size="14" lengthAdjust="spacing" textLength="127" x="170" y="805.8857">numBacterias: Int</text><rect fill="none" height="6" style="stroke:#C82930;stroke-width:1.0;" width="6" x="158" y="815.8359"/><text fill="#000000" font-family="sans-serif" font-size="14" lengthAdjust="spacing" textLength="152" x="170" y="822.1826">temperatura: Double</text><rect fill="none" height="6" style="stroke:#C82930;stroke-width:1.0;" width="6" x="158" y="832.1328"/><text fill="#000000" font-family="sans-serif" font-size="14" lengthAdjust="spacing" textLength="183" x="170" y="838.4795">luminosidad: Luminosidad</text><rect fill="none" height="6" style="stroke:#C82930;stroke-width:1.0;" width="6" x="158" y="848.4297"/><text fill="#000000" font-family="sans-serif" font-size="14" lengthAdjust="spacing" textLength="137" x="170" y="854.7764">dosisComida: Dosis</text><line style="stroke:#181818;stroke-width:0.5;" x1="151" x2="358" y1="862.0781" y2="862.0781"/></g><!--class LaboratorioSwing--><g id="elem_LaboratorioSwing"><rect codeLine="52" fill="#F1F1F1" height="80.7422" id="LaboratorioSwing" rx="2.5" ry="2.5" style="stroke:#181818;stroke-width:0.5;" width="261" x="124" y="197"/><ellipse cx="187.25" cy="213" fill="#ADD1B2" rx="11" ry="11" style="stroke:#181818;stroke-width:1.0;"/><path d="M189.5938,208.6719 C188.6563,208.2344 188.0625,208.0938 187.1875,208.0938 C184.5625,208.0938 182.5625,210.1719 182.5625,212.8906 L182.5625,214.0156 C182.5625,216.5938 184.6719,218.4844 187.5625,218.4844 C188.7813,218.4844 189.9375,218.1875 190.6875,217.6406 C191.2656,217.2344 191.5938,216.7813 191.5938,216.3906 C191.5938,215.9375 191.2031,215.5469 190.7344,215.5469 C190.5156,215.5469 190.3125,215.625 190.125,215.8125 C189.6719,216.2969 189.6719,216.2969 189.4844,216.3906 C189.0625,216.6563 188.375,216.7813 187.6094,216.7813 C185.5625,216.7813 184.2656,215.6875 184.2656,213.9844 L184.2656,212.8906 C184.2656,211.1094 185.5156,209.7969 187.25,209.7969 C187.8281,209.7969 188.4375,209.9531 188.9063,210.2031 C189.3906,210.4844 189.5625,210.7031 189.6563,211.1094 C189.7188,211.5156 189.75,211.6406 189.8906,211.7656 C190.0313,211.9063 190.2656,212.0156 190.4844,212.0156 C190.75,212.0156 191.0156,211.875 191.1875,211.6563 C191.2969,211.5 191.3281,211.3125 191.3281,210.8906 L191.3281,209.4688 C191.3281,209.0313 191.3125,208.9063 191.2188,208.75 C191.0625,208.4844 190.7813,208.3438 190.4844,208.3438 C190.1875,208.3438 189.9844,208.4375 189.7656,208.75 L189.5938,208.6719 Z " fill="#000000"/><text fill="#000000" font-family="sans-serif" font-size="14" lengthAdjust="spacing" textLength="126" x="207.75" y="217.8467">LaboratorioSwing</text><line style="stroke:#181818;stroke-width:0.5;" x1="125" x2="384" y1="229" y2="229"/><rect fill="none" height="6" style="stroke:#C82930;stroke-width:1.0;" width="6" x="132" y="239.6484"/><text fill="#000000" font-family="sans-serif" font-size="14" lengthAdjust="spacing" textLength="214" x="144" y="245.9951">experimentos: Experimento[]</text><line style="stroke:#181818;stroke-width:1.0;stroke-dasharray:1.0,2.0;" x1="125" x2="128" y1="261.4453" y2="261.4453"/><text fill="#000000" font-family="sans-serif" font-size="14" lengthAdjust="spacing" textLength="253" x="128" y="265.792">Implementa la interfaz Laboratorio</text><line style="stroke:#181818;stroke-width:1.0;stroke-dasharray:1.0,2.0;" x1="381" x2="384" y1="261.4453" y2="261.4453"/></g><!--reverse link Laboratorio to LaboratorioSwing--><g id="link_Laboratorio_LaboratorioSwing"><path codeLine="57" d="M254.5,154.376 C254.5,174.702 254.5,178.592 254.5,196.705 " fill="none" id="Laboratorio-backto-LaboratorioSwing" style="stroke:#181818;stroke-width:1.0;stroke-dasharray:7.0,7.0;"/><polygon fill="none" points="254.5,136.376,248.5,154.376,260.5,154.376,254.5,136.376" style="stroke:#181818;stroke-width:1.0;"/></g><!--reverse link LaboratorioSwing to Experimento--><g id="link_LaboratorioSwing_Experimento"><path codeLine="58" d="M254.5,290.109 C254.5,311.276 254.5,326.726 254.5,354.863 " fill="none" id="LaboratorioSwing-backto-Experimento" style="stroke:#181818;stroke-width:1.0;"/><polygon fill="#181818" points="254.5,278.109,250.5,284.109,254.5,290.109,258.5,284.109,254.5,278.109" style="stroke:#181818;stroke-width:1.0;"/><polygon fill="#000000" points="259.5,321.5664,262.4389,312.5213,256.5611,312.5213,259.5,321.5664" style="stroke:#000000;stroke-width:1.0;"/><text fill="#000000" font-family="sans-serif" font-size="13" lengthAdjust="spacing" textLength="42" x="268.5" y="321.0669">realiza</text><text fill="#000000" font-family="sans-serif" font-size="13" lengthAdjust="spacing" textLength="8" x="245.8625" y="297.8744">1</text><text fill="#000000" font-family="sans-serif" font-size="13" lengthAdjust="spacing" textLength="37" x="216.4883" y="343.9647">many</text></g><!--reverse link Experimento to Poblacion--><g id="link_Experimento_Poblacion"><path codeLine="59" d="M254.5,643.101 C254.5,669.299 254.5,683.918 254.5,707.609 " fill="none" id="Experimento-backto-Poblacion" style="stroke:#181818;stroke-width:1.0;"/><polygon fill="#181818" points="254.5,631.101,250.5,637.101,254.5,643.101,258.5,637.101,254.5,631.101" style="stroke:#181818;stroke-width:1.0;"/><polygon fill="#000000" points="259.5,674.5664,262.4389,665.5213,256.5611,665.5213,259.5,674.5664" style="stroke:#000000;stroke-width:1.0;"/><text fill="#000000" font-family="sans-serif" font-size="13" lengthAdjust="spacing" textLength="32" x="268.5" y="674.0669">tiene</text><text fill="#000000" font-family="sans-serif" font-size="13" lengthAdjust="spacing" textLength="8" x="246.2813" y="651.1298">1</text><text fill="#000000" font-family="sans-serif" font-size="13" lengthAdjust="spacing" textLength="37" x="215.9102" y="697.0392">many</text></g><!--reverse link Poblacion to Dosis--><g id="link_Poblacion_Dosis"><path codeLine="60" d="M254.5,882.229 C254.5,907.473 254.5,922.989 254.5,946.911 " fill="none" id="Poblacion-backto-Dosis" style="stroke:#181818;stroke-width:1.0;"/><polygon fill="#181818" points="254.5,870.229,250.5,876.229,254.5,882.229,258.5,876.229,254.5,870.229" style="stroke:#181818;stroke-width:1.0;"/><polygon fill="#000000" points="259.5,913.5664,262.4389,904.5213,256.5611,904.5213,259.5,913.5664" style="stroke:#000000;stroke-width:1.0;"/><text fill="#000000" font-family="sans-serif" font-size="13" lengthAdjust="spacing" textLength="32" x="268.5" y="913.0669">tiene</text><text fill="#000000" font-family="sans-serif" font-size="13" lengthAdjust="spacing" textLength="8" x="246.1438" y="890.2008">1</text><text fill="#000000" font-family="sans-serif" font-size="13" lengthAdjust="spacing" textLength="8" x="246.0625" y="936.0739">1</text></g><!--SRC=[pLDDJyCm3BttLrWxyRL9N2k4LDYGXeOqQTmG1pSrB5AQJ6uwOC1_nqlNDXiJPqvDdks-v-UOR5t2h2wrTPKki83F122RFMONydsOZAVXS9FTPybtacZhYLzG4SmmTupUiNQXv1oOqEWDykHzHQnBijwTd8O8vgmvOxNKwnPIadqayxL6Bf3tRxUktCQ5NXciAeZA0lKGh2jpfXGMdhLz3T0BgILEhLRQfJ16Jprwfsq4IVytgAGjZLKAK-i3wgaK4lGre-IwEZTDjkcTIcFRGh2GSoLg1TWMoIN0AvSR51sMX63UNfwUawP9ghnSaRl8VlT7V3lCNEkgRhoVzrIxc4o9ZrGGZycZCLJ5eSxY87vdhaBhjoq6Cz7q7XLQ31P1OH8ztEQF_mxB5DgVDPsXKRL13jHIA_E85NKo__t8EydHYYpUHEHEEVNFLzYZnoml0c0qWccvCi4r18EmMxdDtiQDHbkQ6Bdwaif3nkINXC7b0Cw6GnYKQ3y6UwkKjXiCrqcC7vJqWqZ1Qx8awJtM9SktUKHTrWy0]--></g></svg>